<svg width="100" height="100" viewBox="0 0 100 100" xmlns="http://www.w3.org/2000/svg">
  <defs>
    <!-- Main gradient matching the original logo -->
    <linearGradient id="logoGradient" x1="0%" y1="0%" x2="100%" y2="100%">
      <stop offset="0%" style="stop-color:#5DD5D5;stop-opacity:1" />
      <stop offset="50%" style="stop-color:#3FB8AF;stop-opacity:1" />
      <stop offset="100%" style="stop-color:#173F5F;stop-opacity:1" />
    </linearGradient>
  </defs>
  
  <!-- 3D hexagon with rounded corners matching original -->
  <path d="M35 10 
           Q20 10 15 22.5
           L10 35
           Q10 50 10 65  
           L15 77.5
           Q20 90 35 90
           L65 90
           Q80 90 85 77.5
           L90 65
           Q90 50 90 35
           L85 22.5
           Q80 10 65 10
           Z" 
        fill="url(#logoGradient)"/>
  
  <!-- Letter D cutout with proper proportions -->
  <path d="M32 25 
           L32 75 
           L52 75 
           C64 75 72 67 72 55 
           L72 45 
           C72 33 64 25 52 25 
           Z 
           M40 35 
           L52 35 
           C58 35 62 39 62 45 
           L62 55 
           C62 61 58 65 52 65 
           L40 65 
           Z" 
        fill="white" 
        fill-rule="evenodd"/>
</svg>