<svg xmlns="http://www.w3.org/2000/svg" viewBox="0 0 128 128">
  <!-- Shield background -->
  <path d="M64 8L24 24v32c0 24.8 15.3 46.1 36.8 55.2L64 112l3.2-0.8C88.7 102.1 104 80.8 104 56V24L64 8z" 
        fill="url(#gradient)" stroke="#2d3748" stroke-width="2"/>
  
  <!-- Inner shield -->
  <path d="M64 20L32 32v24c0 18.6 11.5 34.6 27.6 41.4L64 100l4.4-2.6C84.5 90.6 96 74.6 96 56V32L64 20z" 
        fill="rgba(255,255,255,0.9)"/>
  
  <!-- DAON text/symbol -->
  <text x="64" y="48" text-anchor="middle" font-family="Arial, sans-serif" font-weight="bold" 
        font-size="12" fill="#2d3748">DAON</text>
  
  <!-- Lock/protection symbol -->
  <rect x="52" y="58" width="24" height="16" rx="2" fill="#4ade80" stroke="#16a34a" stroke-width="1"/>
  <path d="M56 58v-4c0-4.4 3.6-8 8-8s8 3.6 8 8v4" fill="none" stroke="#16a34a" stroke-width="2"/>
  
  <!-- Small dots for blockchain -->
  <circle cx="46" cy="82" r="2" fill="#667eea"/>
  <circle cx="58" cy="88" r="2" fill="#667eea"/>
  <circle cx="70" cy="88" r="2" fill="#667eea"/>
  <circle cx="82" cy="82" r="2" fill="#667eea"/>
  
  <!-- Connecting lines -->
  <line x1="48" y1="82" x2="56" y2="88" stroke="#667eea" stroke-width="1"/>
  <line x1="60" y1="88" x2="68" y2="88" stroke="#667eea" stroke-width="1"/>
  <line x1="72" y1="88" x2="80" y2="82" stroke="#667eea" stroke-width="1"/>
  
  <!-- Gradient definition -->
  <defs>
    <linearGradient id="gradient" x1="0%" y1="0%" x2="100%" y2="100%">
      <stop offset="0%" style="stop-color:#667eea;stop-opacity:1" />
      <stop offset="100%" style="stop-color:#764ba2;stop-opacity:1" />
    </linearGradient>
  </defs>
</svg>